#!OML:ASF H:\Male1\Project 1\Capture day 1\Session 1\Male1.ASF
:FULLY-SPECIFIED
:DEGREES
288
root -2.38187 15.0577 4.63298 197.674 80.7195 -161.907
lowerback 6.6675 3.68378 1.85823
upperback 4.64241 5.15656 -0.850585
thorax 1.30695 2.70524 -2.17756
lowerneck -7.77662 5.28845 13.423
upperneck 15.2448 7.2483 -10.2986
head 6.77595 3.58912 -4.9204
rclavicle -1.72943e-014 1.11319e-014
rhumerus -24.5128 -7.13583 -87.7685
rradius 34.6417
rwrist -19.7425
rhand -18.6612 4.19866
rfingers 7.12502
rthumb 7.63217 -25.6436
lclavicle -1.72943e-014 1.11319e-014
lhumerus -36.6678 15.1876 72.608
lradius 19.0182
lwrist -19.7068
lhand -19.3176 12.2208
lfingers 7.12502
lthumb 6.99856 42.0851
rfemur 11.6639 -1.88838 28.1624
rtibia 30.2465
rfoot -7.00611 -0.43836
rtoes -30.3748
lfemur -25.3526 -12.39 -21.4946
ltibia 34.3805
lfoot -17.0565 16.8573
ltoes 8.83174
289
root -2.09792 15.0843 4.57448 194.307 81.0834 -165.164
lowerback 6.70984 3.60457 0.998233
upperback 4.57538 5.00803 -1.15063
thorax 1.15887 2.61352 -2.00939
lowerneck -7.62973 5.57153 13.7586
upperneck 15.3389 7.60979 -10.2226
head 6.83824 3.79257 -4.9166
rclavicle 6.14245e-014 -1.82882e-014
rhumerus -25.0944 -6.95074 -87.5915
rradius 33.5381
rwrist -19.1258
rhand -18.2225 4.04177
rfingers 7.12502
rthumb 8.05563 -25.7847
lclavicle 6.14245e-014 -1.82882e-014
lhumerus -36.1938 13.8116 73.5954
lradius 19.936
lwrist -17.4328
lhand -19.8345 12.0902
lfingers 7.12502
lthumb 6.49961 41.9704
rfemur 8.27426 -2.68741 26.6001
rtibia 37.3205
rfoot -4.14543 1.02342
rtoes -32.655
lfemur -23.5368 -11.7466 -22.5204
ltibia 33.7257
lfoot -17.1306 16.6461
ltoes 8.29935
290
root -1.81918 15.1109 4.51782 189.394 81.2971 -169.897
lowerback 6.87392 3.48391 0.0297563
upperback 4.56078 4.80229 -1.47618
thorax 0.993318 2.49529 -1.80952
lowerneck -7.49658 5.85944 13.9885
upperneck 15.3656 7.97858 -10.1111
head 6.87761 3.99425 -4.88106
rclavicle -3.85642e-014 2.38542e-015
rhumerus -25.6823 -6.76984 -87.3861
rradius 32.5888
rwrist -18.4163
rhand -17.6664 3.59355
rfingers 7.12502
rthumb 8.5923 -26.2116
lclavicle -3.85642e-014 2.38542e-015
lhumerus -35.655 11.9672 74.8335
lradius 21.1389
lwrist -14.8161
lhand -20.2102 11.8831
lfingers 7.12502
lthumb 6.13686 41.7742
rfemur 4.87235 -3.12172 25.1202
rtibia 44.0852
rfoot -1.85347 1.61318
rtoes -35.1767
lfemur -21.5168 -10.892 -23.7297
ltibia 32.821
lfoot -17.3517 16.1704
ltoes 7.2375
291
root -1.54453 15.1366 4.46208 183.462 81.3181 -175.593
lowerback 7.12293 3.32515 -1.00456
upperback 4.59766 4.54255 -1.7997
thorax 0.833914 2.35244 -1.56962
lowerneck -7.39594 6.13797 14.0809
upperneck 15.356 8.33605 -9.94698
head 6.90165 4.18449 -4.80502
rclavicle 7.15625e-015 1.59028e-014
rhumerus -26.2922 -6.52763 -87.1626
rradius 31.8565
rwrist -17.7294
rhand -17.1066 2.89092
rfingers 7.12502
rthumb 9.13245 -26.8913
lclavicle 7.15625e-015 1.59028e-014
lhumerus -35.0785 9.7606 76.2382
lradius 22.5732
lwrist -12.0248
lhand -20.4573 11.7801
lfingers 7.12502
lthumb 5.89835 41.678
rfemur 1.49158 -3.26026 23.7653
rtibia 50.4001
rfoot -0.636187 1.37888
rtoes -37.322
lfemur -19.3238 -10.06 -25.0279
ltibia 31.6908
lfoot -17.6278 15.5159
ltoes 6.51421
292
root -1.27241 15.1626 4.40624 177.544 81.1225 -181.257
lowerback 7.39923 3.13488 -2.02099
upperback 4.66958 4.23935 -2.08176
thorax 0.70152 2.19002 -1.29205
lowerneck -7.28785 6.38544 14.0793
upperneck 15.2964 8.6583 -9.77504
head 6.8986 4.35243 -4.71464
rclavicle -4.94974e-014 -3.97569e-015
rhumerus -26.945 -6.20054 -86.9153
rradius 31.3421
rwrist -17.1415
rhand -16.6524 2.08508
rfingers 7.12502
rthumb 9.57075 -27.6775
lclavicle -4.94974e-014 -3.97569e-015
lhumerus -34.4662 7.36442 77.7067
lradius 24.1405
lwrist -9.32337
lhand -20.6841 11.7854
lfingers 7.12502
lthumb 5.67932 41.6893
rfemur -1.85258 -3.16052 22.6174
rtibia 56.1042
rfoot -0.576874 0.335596
rtoes -38.6528
lfemur -17.0364 -9.45018 -26.2917
ltibia 30.3938
lfoot -17.9596 14.9677
ltoes 5.69153
293
root -1.00244 15.1863 4.34986 172.71 80.728 -185.837
lowerback 7.67087 2.91973 -2.91827
upperback 4.76184 3.90619 -2.28566
thorax 0.604062 2.0146 -0.99433
lowerneck -7.18712 6.58513 14.0041
upperneck 15.2358 8.92208 -9.59574
head 6.88433 4.48864 -4.61628
rclavicle 4.85035e-014 5.56597e-015
rhumerus -27.6543 -5.81839 -86.6307
rradius 30.9925
rwrist -16.6823
rhand -16.3945 1.41397
rfingers 7.12502
rthumb 9.8196 -28.3371
lclavicle 4.85035e-014 5.56597e-015
lhumerus -33.7886 4.95245 79.1472
lradius 25.7375
lwrist -6.94669
lhand -20.8458 12.0218
lfingers 7.12502
lthumb 5.52328 41.9298
rfemur -5.13953 -2.89383 21.7641
rtibia 61.044
rfoot -1.42239 -1.4928
rtoes -39.0468
lfemur -14.7335 -9.1769 -27.4092
ltibia 29.0235
lfoot -18.3424 14.5841
ltoes 4.90528
294
root -0.733727 15.2077 4.2924 169.53 80.2335 -188.796
lowerback 7.89309 2.69913 -3.6196
upperback 4.8551 3.57418 -2.39465
thorax 0.548648 1.84121 -0.702354
lowerneck -7.10236 6.72568 13.8964
upperneck 15.2078 9.10995 -9.4202
head 6.87145 4.58673 -4.52225
rclavicle 4.90998e-014 -2.8625e-014
rhumerus -28.4199 -5.44689 -86.2976
rradius 30.732
rwrist -16.3489
rhand -16.3617 1.0147
rfingers 7.12502
rthumb 9.85125 -28.7348
lclavicle 4.90998e-014 -2.8625e-014
lhumerus -33.0073 2.67229 80.4836
lradius 27.2765
lwrist -5.03173
lhand -20.9594 12.2428
lfingers 7.12502
lthumb 5.41359 42.1536
rfemur -8.39918 -2.44666 21.2593
rtibia 65.1105
rfoot -2.76826 -3.88922
rtoes -38.2144
lfemur -12.4979 -9.23797 -28.3064
ltibia 27.6728
lfoot -18.7922 14.388
ltoes 4.35086
295
root -0.465355 15.2259 4.2339 167.846 79.7266 -190.308
lowerback 8.04761 2.49211 -4.12024
upperback 4.93496 3.27034 -2.41805
thorax 0.52807 1.68276 -0.430786
lowerneck -7.00208 6.80705 13.8244
upperneck 15.2111 9.22183 -9.27315
head 6.85881 4.64974 -4.45256
rclavicle 1.63003e-014 9.54166e-015
rhumerus -29.2486 -5.18238 -85.9087
rradius 30.5014
rwrist -16.0977
rhand -16.5373 0.903831
rfingers 7.12502
rthumb 9.68178 -28.8537
lclavicle 1.63003e-014 9.54166e-015
lhumerus -32.1173 0.595576 81.6727
lradius 28.7272
lwrist -3.56984
lhand -21.0304 12.258
lfingers 7.12502
lthumb 5.34497 42.1706
rfemur -11.6268 -1.78949 21.0764
rtibia 68.2346
rfoot -4.39465 -6.57368
rtoes -36.8051
lfemur -10.386 -9.52862 -28.9867
ltibia 26.4319
lfoot -19.2986 14.3629
ltoes 3.96662
296
root -0.197108 15.2394 4.17492 167.171 79.259 -190.861
lowerback 8.14963 2.3158 -4.46421
upperback 4.98854 3.01471 -2.38415
thorax 0.51662 1.54911 -0.188055
lowerneck -6.91631 6.83032 13.7526
upperneck 15.271 9.25172 -9.0965
head 6.85518 4.67634 -4.38189
rclavicle -4.65156e-014 2.94201e-014
rhumerus -30.1413 -5.10067 -85.4683
rradius 30.302
rwrist -15.9208
rhand -16.8271 0.88793
rfingers 7.12502
rthumb 9.40216 -28.8824
lclavicle -4.65156e-014 2.94201e-014
lhumerus -31.1437 -1.2737 82.7012
lradius 30.0996
lwrist -2.44833
lhand -21.0987 12.0246
lfingers 7.12502
lthumb 5.27909 41.9389
rfemur -14.7934 -0.901195 21.1218
rtibia 70.3999
rfoot -6.00374 -9.2179
rtoes -35.1384
lfemur -8.42026 -9.89608 -29.4994
ltibia 25.3492
lfoot -19.8229 14.4362
ltoes 3.59707
297
root 0.0712153 15.2469 4.11618 167.034 78.8368 -190.905
lowerback 8.2358 2.17302 -4.71056
upperback 5.01639 2.80672 -2.32081
thorax 0.491312 1.44016 0.0276889
lowerneck -6.84402 6.80367 13.6886
upperneck 15.3828 9.2088 -8.88569
head 6.86051 4.67164 -4.30881
rclavicle -4.57205e-015 3.10104e-014
rhumerus -31.0695 -5.21582 -84.9882
rradius 30.1281
rwrist -15.8266
rhand -17.1124 0.783793
rfingers 7.12502
rthumb 9.12688 -28.9987
lclavicle -4.57205e-015 3.10104e-014
lhumerus -30.1178 -2.98206 83.5864
lradius 31.4106
lwrist -1.5146
lhand -21.2336 11.6715
lfingers 7.12502
lthumb 5.14881 41.589
rfemur -17.8307 0.207824 21.2813
rtibia 71.6191
rfoot -7.60083 -11.6665
rtoes -33.8384
lfemur -6.58689 -10.2223 -29.9035
ltibia 24.4398
lfoot -20.3408 14.5245
ltoes 3.17332
298
root 0.340153 15.2468 4.05793 166.989 78.424 -190.855
lowerback 8.34587 2.05193 -4.934
upperback 5.03322 2.62605 -2.25249
thorax 0.443317 1.34567 0.232933
lowerneck -6.77708 6.73967 13.6346
upperneck 15.5217 9.11186 -8.65817
head 6.86898 4.64343 -4.23748
rclavicle 2.44505e-014 -3.33958e-014
rhumerus -31.9939 -5.5133 -84.4741
rradius 29.9544
rwrist -15.7867
rhand -17.3017 0.623039
rfingers 7.12502
rthumb 8.94424 -29.1674
lclavicle 2.44505e-014 -3.33958e-014
lhumerus -29.0829 -4.60957 84.3625
lradius 32.7012
lwrist -0.62216
lhand -21.4906 11.3383
lfingers 7.12502
lthumb 4.90064 41.2616
rfemur -20.6519 1.4726 21.4205
rtibia 71.9265
rfoot -9.12003 -13.8135
rtoes -32.9989
lfemur -4.83488 -10.4559 -30.2793
ltibia 23.6805
lfoot -20.8432 14.5783
ltoes 2.59149
299
root 0.610645 15.2387 3.99993 166.825 77.9731 -190.907
lowerback 8.49406 1.93455 -5.17538
upperback 5.05312 2.44716 -2.19423
thorax 0.379444 1.25273 0.436902
lowerneck -6.74845 6.65394 13.5603
upperneck 15.7003 8.98089 -8.40521
head 6.89111 4.59946 -4.15695
rclavicle 1.65985e-014 -2.54444e-014
rhumerus -32.8767 -5.95613 -83.936
rradius 29.7635
rwrist -15.7658
rhand -17.3596 0.52765
rfingers 7.12502
rthumb 8.88833 -29.2651
lclavicle 1.65985e-014 -2.54444e-014
lhumerus -28.0745 -6.22524 85.0501
lradius 34.0052
lwrist 0.303421
lhand -21.8958 11.1364
lfingers 7.12502
lthumb 4.50942 41.0684
rfemur -23.1881 2.79613 21.4481
rtibia 71.3457
rfoot -10.4902 -15.595
rtoes -32.6027
lfemur -3.10443 -10.5924 -30.6751
ltibia 23.0009
lfoot -21.312 14.5584
ltoes 1.86059
300
root 0.883738 15.2258 3.94141 166.631 77.4747 -190.977
lowerback 8.66466 1.81161 -5.41206
upperback 5.0818 2.26053 -2.14484
thorax 0.315432 1.1567 0.630006
lowerneck -6.73891 6.55102 13.4879
upperneck 15.8787 8.82611 -8.17199
head 6.91523 4.54253 -4.0851
rclavicle -1.68967e-014 1.66979e-014
rhumerus -33.6952 -6.49389 -83.3884
rradius 29.5546
rwrist -15.7388
rhand -17.2939 0.557613
rfingers 7.12502
rthumb 8.9517 -29.2325
lclavicle -1.68967e-014 1.66979e-014
lhumerus -27.1056 -7.85675 85.6518
lradius 35.3242
lwrist 1.24595
lhand -22.4212 11.1415
lfingers 7.12502
lthumb 4.002 41.0837
rfemur -25.3862 4.10836 21.3541
rtibia 69.8919
rfoot -11.7163 -17.0019
rtoes -32.4278
lfemur -1.34224 -10.6408 -31.0726
ltibia 22.29
lfoot -21.7084 14.4524
ltoes 1.09756
301
root 1.16096 15.213 3.88158 166.545 76.9101 -190.929
lowerback 8.83574 1.67252 -5.6158
upperback 5.12598 2.05596 -2.09555
thorax 0.271239 1.05227 0.807496
lowerneck -6.75777 6.43688 13.4014
upperneck 16.0553 8.65597 -7.95697
head 6.94259 4.47549 -4.01772
rclavicle -4.29375e-014 9.54166e-015
rhumerus -34.4482 -7.07256 -82.8457
rradius 29.336
rwrist -15.6782
rhand -17.1531 0.778023
rfingers 7.12502
rthumb 9.0876 -29.0062
lclavicle -4.29375e-014 9.54166e-015
lhumerus -26.1694 -9.48913 86.1631
lradius 36.6419
lwrist 2.16291
lhand -22.9711 11.2803
lfingers 7.12502
lthumb 3.47104 41.2318
rfemur -27.1798 5.32588 21.1619
rtibia 67.5658
rfoot -12.8356 -18.1274
rtoes -32.3799
lfemur 0.511446 -10.6318 -31.4421
ltibia 21.4352
lfoot -21.9741 14.2743
ltoes 0.335251
